<mxfile host="app.diagrams.net" modified="2024-04-30T09:23:20.503Z" agent="Mozilla/5.0 (Windows NT 10.0; Win64; x64) AppleWebKit/537.36 (KHTML, like Gecko) Chrome/124.0.0.0 Safari/537.36" etag="kpe5TNWRO6SBitqQdJ1L" version="24.3.1" type="device">
  <diagram name="Page-1" id="7Z9n95kimiWt8wUi85Q_">
    <mxGraphModel dx="1434" dy="772" grid="1" gridSize="10" guides="1" tooltips="1" connect="1" arrows="1" fold="1" page="1" pageScale="1" pageWidth="850" pageHeight="1100" math="0" shadow="0">
      <root>
        <mxCell id="0" />
        <mxCell id="1" parent="0" />
        <mxCell id="LLJzu3yM0G75FeSDuMVk-3" value="&lt;font style=&quot;font-size: 18px;&quot;&gt;Customer&lt;/font&gt;" style="rounded=0;whiteSpace=wrap;html=1;" vertex="1" parent="1">
          <mxGeometry x="40" y="40" width="120" height="60" as="geometry" />
        </mxCell>
        <mxCell id="LLJzu3yM0G75FeSDuMVk-5" value="Registration" style="ellipse;whiteSpace=wrap;html=1;" vertex="1" parent="1">
          <mxGeometry x="330" y="40" width="120" height="80" as="geometry" />
        </mxCell>
        <mxCell id="LLJzu3yM0G75FeSDuMVk-36" value="" style="edgeStyle=orthogonalEdgeStyle;rounded=0;orthogonalLoop=1;jettySize=auto;html=1;" edge="1" parent="1" source="LLJzu3yM0G75FeSDuMVk-6" target="LLJzu3yM0G75FeSDuMVk-20">
          <mxGeometry relative="1" as="geometry" />
        </mxCell>
        <mxCell id="LLJzu3yM0G75FeSDuMVk-6" value="LogIn" style="ellipse;whiteSpace=wrap;html=1;" vertex="1" parent="1">
          <mxGeometry x="330" y="160" width="120" height="80" as="geometry" />
        </mxCell>
        <mxCell id="LLJzu3yM0G75FeSDuMVk-7" value="Order" style="ellipse;whiteSpace=wrap;html=1;" vertex="1" parent="1">
          <mxGeometry x="330" y="400" width="120" height="80" as="geometry" />
        </mxCell>
        <mxCell id="LLJzu3yM0G75FeSDuMVk-38" value="" style="edgeStyle=orthogonalEdgeStyle;rounded=0;orthogonalLoop=1;jettySize=auto;html=1;" edge="1" parent="1" source="LLJzu3yM0G75FeSDuMVk-8" target="LLJzu3yM0G75FeSDuMVk-7">
          <mxGeometry relative="1" as="geometry" />
        </mxCell>
        <mxCell id="LLJzu3yM0G75FeSDuMVk-8" value="Cart" style="ellipse;whiteSpace=wrap;html=1;" vertex="1" parent="1">
          <mxGeometry x="330" y="520" width="120" height="80" as="geometry" />
        </mxCell>
        <mxCell id="LLJzu3yM0G75FeSDuMVk-41" value="" style="edgeStyle=orthogonalEdgeStyle;rounded=0;orthogonalLoop=1;jettySize=auto;html=1;entryX=1;entryY=0.5;entryDx=0;entryDy=0;" edge="1" parent="1" source="LLJzu3yM0G75FeSDuMVk-9" target="LLJzu3yM0G75FeSDuMVk-20">
          <mxGeometry relative="1" as="geometry">
            <mxPoint x="530" y="320" as="targetPoint" />
          </mxGeometry>
        </mxCell>
        <mxCell id="LLJzu3yM0G75FeSDuMVk-42" style="edgeStyle=orthogonalEdgeStyle;rounded=0;orthogonalLoop=1;jettySize=auto;html=1;entryX=1;entryY=0.5;entryDx=0;entryDy=0;" edge="1" parent="1" target="LLJzu3yM0G75FeSDuMVk-7">
          <mxGeometry relative="1" as="geometry">
            <mxPoint x="460.03999999999996" y="398.53999999999996" as="targetPoint" />
            <mxPoint x="699" y="519.5" as="sourcePoint" />
          </mxGeometry>
        </mxCell>
        <mxCell id="LLJzu3yM0G75FeSDuMVk-9" value="&lt;div&gt;&lt;span style=&quot;font-size: 18px;&quot;&gt;Saler&lt;/span&gt;&lt;/div&gt;" style="rounded=0;whiteSpace=wrap;html=1;" vertex="1" parent="1">
          <mxGeometry x="641" y="560" width="120" height="60" as="geometry" />
        </mxCell>
        <mxCell id="LLJzu3yM0G75FeSDuMVk-10" value="" style="endArrow=classic;html=1;rounded=0;entryX=-0.033;entryY=0.388;entryDx=0;entryDy=0;entryPerimeter=0;" edge="1" parent="1" target="LLJzu3yM0G75FeSDuMVk-5">
          <mxGeometry width="50" height="50" relative="1" as="geometry">
            <mxPoint x="160" y="71" as="sourcePoint" />
            <mxPoint x="450" y="310" as="targetPoint" />
            <Array as="points">
              <mxPoint x="160" y="71" />
            </Array>
          </mxGeometry>
        </mxCell>
        <mxCell id="LLJzu3yM0G75FeSDuMVk-11" value="" style="endArrow=classic;html=1;rounded=0;entryX=-0.033;entryY=0.4;entryDx=0;entryDy=0;entryPerimeter=0;" edge="1" parent="1" target="LLJzu3yM0G75FeSDuMVk-6">
          <mxGeometry width="50" height="50" relative="1" as="geometry">
            <mxPoint x="160" y="70" as="sourcePoint" />
            <mxPoint x="210" y="20" as="targetPoint" />
          </mxGeometry>
        </mxCell>
        <mxCell id="LLJzu3yM0G75FeSDuMVk-12" value="" style="endArrow=classic;html=1;rounded=0;entryX=0;entryY=0.5;entryDx=0;entryDy=0;exitX=1;exitY=0.5;exitDx=0;exitDy=0;" edge="1" parent="1" source="LLJzu3yM0G75FeSDuMVk-3" target="LLJzu3yM0G75FeSDuMVk-7">
          <mxGeometry width="50" height="50" relative="1" as="geometry">
            <mxPoint x="80" y="310" as="sourcePoint" />
            <mxPoint x="130" y="260" as="targetPoint" />
          </mxGeometry>
        </mxCell>
        <mxCell id="LLJzu3yM0G75FeSDuMVk-13" value="" style="endArrow=classic;html=1;rounded=0;entryX=0;entryY=0.5;entryDx=0;entryDy=0;exitX=1;exitY=0.5;exitDx=0;exitDy=0;" edge="1" parent="1" source="LLJzu3yM0G75FeSDuMVk-3" target="LLJzu3yM0G75FeSDuMVk-8">
          <mxGeometry width="50" height="50" relative="1" as="geometry">
            <mxPoint x="60" y="250" as="sourcePoint" />
            <mxPoint x="110" y="200" as="targetPoint" />
          </mxGeometry>
        </mxCell>
        <mxCell id="LLJzu3yM0G75FeSDuMVk-14" value="&lt;font style=&quot;font-size: 18px;&quot;&gt;Admin&lt;/font&gt;" style="rounded=0;whiteSpace=wrap;html=1;" vertex="1" parent="1">
          <mxGeometry x="641" y="40" width="120" height="60" as="geometry" />
        </mxCell>
        <mxCell id="LLJzu3yM0G75FeSDuMVk-15" value="" style="endArrow=classic;html=1;rounded=0;exitX=0;exitY=0.5;exitDx=0;exitDy=0;entryX=1;entryY=0.5;entryDx=0;entryDy=0;" edge="1" parent="1" source="LLJzu3yM0G75FeSDuMVk-14" target="LLJzu3yM0G75FeSDuMVk-7">
          <mxGeometry width="50" height="50" relative="1" as="geometry">
            <mxPoint x="400" y="370" as="sourcePoint" />
            <mxPoint x="450" y="320" as="targetPoint" />
          </mxGeometry>
        </mxCell>
        <mxCell id="LLJzu3yM0G75FeSDuMVk-16" value="" style="endArrow=classic;html=1;rounded=0;exitX=0.5;exitY=1;exitDx=0;exitDy=0;" edge="1" parent="1" source="LLJzu3yM0G75FeSDuMVk-14">
          <mxGeometry width="50" height="50" relative="1" as="geometry">
            <mxPoint x="650" y="610" as="sourcePoint" />
            <mxPoint x="700" y="560" as="targetPoint" />
          </mxGeometry>
        </mxCell>
        <mxCell id="LLJzu3yM0G75FeSDuMVk-17" value="do register" style="text;html=1;align=center;verticalAlign=middle;whiteSpace=wrap;rounded=0;" vertex="1" parent="1">
          <mxGeometry x="210" y="51" width="60" height="30" as="geometry" />
        </mxCell>
        <mxCell id="LLJzu3yM0G75FeSDuMVk-18" value="do login" style="text;html=1;align=center;verticalAlign=middle;whiteSpace=wrap;rounded=0;rotation=30;" vertex="1" parent="1">
          <mxGeometry x="220" y="110" width="70" height="40" as="geometry" />
        </mxCell>
        <mxCell id="LLJzu3yM0G75FeSDuMVk-19" value="place order" style="text;html=1;align=center;verticalAlign=middle;whiteSpace=wrap;rounded=0;rotation=60;" vertex="1" parent="1">
          <mxGeometry x="209.38" y="240.23" width="107.5" height="40" as="geometry" />
        </mxCell>
        <mxCell id="LLJzu3yM0G75FeSDuMVk-37" value="" style="edgeStyle=orthogonalEdgeStyle;rounded=0;orthogonalLoop=1;jettySize=auto;html=1;" edge="1" parent="1" source="LLJzu3yM0G75FeSDuMVk-20" target="LLJzu3yM0G75FeSDuMVk-7">
          <mxGeometry relative="1" as="geometry" />
        </mxCell>
        <mxCell id="LLJzu3yM0G75FeSDuMVk-20" value="Products" style="ellipse;whiteSpace=wrap;html=1;" vertex="1" parent="1">
          <mxGeometry x="330" y="280" width="120" height="80" as="geometry" />
        </mxCell>
        <mxCell id="LLJzu3yM0G75FeSDuMVk-22" value="" style="endArrow=classic;html=1;rounded=0;exitX=1;exitY=0.5;exitDx=0;exitDy=0;" edge="1" parent="1" source="LLJzu3yM0G75FeSDuMVk-3" target="LLJzu3yM0G75FeSDuMVk-20">
          <mxGeometry width="50" height="50" relative="1" as="geometry">
            <mxPoint x="110" y="320" as="sourcePoint" />
            <mxPoint x="160" y="270" as="targetPoint" />
          </mxGeometry>
        </mxCell>
        <mxCell id="LLJzu3yM0G75FeSDuMVk-24" value="see products" style="edgeLabel;html=1;align=center;verticalAlign=middle;resizable=0;points=[];rotation=45;" vertex="1" connectable="0" parent="LLJzu3yM0G75FeSDuMVk-22">
          <mxGeometry x="-0.1569" y="4" relative="1" as="geometry">
            <mxPoint x="23" y="16" as="offset" />
          </mxGeometry>
        </mxCell>
        <mxCell id="LLJzu3yM0G75FeSDuMVk-25" value="see cart add items to cart" style="text;html=1;align=center;verticalAlign=middle;whiteSpace=wrap;rounded=0;rotation=66;" vertex="1" parent="1">
          <mxGeometry x="156.59" y="295.52" width="149.69" height="25.57" as="geometry" />
        </mxCell>
        <mxCell id="LLJzu3yM0G75FeSDuMVk-29" value="see custoner details" style="text;html=1;align=center;verticalAlign=middle;whiteSpace=wrap;rounded=0;rotation=0;" vertex="1" parent="1">
          <mxGeometry x="510" y="179" width="95" height="45" as="geometry" />
        </mxCell>
        <mxCell id="LLJzu3yM0G75FeSDuMVk-30" value="" style="endArrow=classic;html=1;rounded=0;exitX=1.033;exitY=0.4;exitDx=0;exitDy=0;exitPerimeter=0;" edge="1" parent="1" source="LLJzu3yM0G75FeSDuMVk-5">
          <mxGeometry width="50" height="50" relative="1" as="geometry">
            <mxPoint x="40" y="500" as="sourcePoint" />
            <mxPoint x="640" y="70" as="targetPoint" />
          </mxGeometry>
        </mxCell>
        <mxCell id="LLJzu3yM0G75FeSDuMVk-32" value="had customer infomation" style="text;html=1;align=center;verticalAlign=middle;whiteSpace=wrap;rounded=0;" vertex="1" parent="1">
          <mxGeometry x="485" y="49" width="140" height="30" as="geometry" />
        </mxCell>
        <mxCell id="LLJzu3yM0G75FeSDuMVk-35" value="" style="edgeStyle=orthogonalEdgeStyle;rounded=0;orthogonalLoop=1;jettySize=auto;html=1;" edge="1" parent="1" source="LLJzu3yM0G75FeSDuMVk-33" target="LLJzu3yM0G75FeSDuMVk-6">
          <mxGeometry relative="1" as="geometry" />
        </mxCell>
        <mxCell id="LLJzu3yM0G75FeSDuMVk-39" value="" style="edgeStyle=orthogonalEdgeStyle;rounded=0;orthogonalLoop=1;jettySize=auto;html=1;" edge="1" parent="1" source="LLJzu3yM0G75FeSDuMVk-33" target="LLJzu3yM0G75FeSDuMVk-14">
          <mxGeometry relative="1" as="geometry" />
        </mxCell>
        <mxCell id="LLJzu3yM0G75FeSDuMVk-33" value="allow login" style="text;html=1;align=center;verticalAlign=middle;whiteSpace=wrap;rounded=0;" vertex="1" parent="1">
          <mxGeometry x="485" y="100" width="75" height="45" as="geometry" />
        </mxCell>
        <mxCell id="LLJzu3yM0G75FeSDuMVk-43" value="add edit and remove products" style="text;html=1;align=center;verticalAlign=middle;whiteSpace=wrap;rounded=0;" vertex="1" parent="1">
          <mxGeometry x="494" y="460" width="60" height="90" as="geometry" />
        </mxCell>
        <mxCell id="LLJzu3yM0G75FeSDuMVk-45" value="see order and respond" style="text;html=1;align=center;verticalAlign=middle;whiteSpace=wrap;rounded=0;" vertex="1" parent="1">
          <mxGeometry x="610" y="500" width="60" height="30" as="geometry" />
        </mxCell>
      </root>
    </mxGraphModel>
  </diagram>
</mxfile>
